<svg width="410" height="136" viewBox="0 0 410 136" fill="none" xmlns="http://www.w3.org/2000/svg">
<path d="M41.144 98.384C40.184 98.768 39.224 98.744 38.264 98.312C37.352 97.928 36.704 97.28 36.32 96.368C35.936 95.456 35.936 94.568 36.32 93.704C36.704 92.84 37.352 92.24 38.264 91.904C48.392 88.256 56.408 84.128 62.312 79.52C62.408 79.472 62.432 79.4 62.384 79.304C62.336 79.208 62.264 79.16 62.168 79.16H40.496C39.584 79.16 38.816 78.848 38.192 78.224C37.568 77.6 37.256 76.832 37.256 75.92C37.256 75.008 37.568 74.24 38.192 73.616C38.816 72.992 39.584 72.68 40.496 72.68H63.968C64.4 72.68 64.616 72.488 64.616 72.104V69.8C64.616 68.744 65 67.832 65.768 67.064C66.584 66.248 67.52 65.84 68.576 65.84C69.632 65.84 70.544 66.248 71.312 67.064C72.128 67.832 72.536 68.744 72.536 69.8V72.104C72.536 72.488 72.752 72.68 73.184 72.68H96.656C97.568 72.68 98.336 72.992 98.96 73.616C99.584 74.24 99.896 75.008 99.896 75.92C99.896 76.832 99.584 77.6 98.96 78.224C98.336 78.848 97.568 79.16 96.656 79.16H74.984C74.888 79.16 74.816 79.208 74.768 79.304C74.72 79.4 74.744 79.472 74.84 79.52C80.6 84.032 88.592 88.136 98.816 91.832C99.728 92.168 100.376 92.792 100.76 93.704C101.192 94.568 101.216 95.456 100.832 96.368C100.448 97.28 99.776 97.928 98.816 98.312C97.904 98.696 96.992 98.72 96.08 98.384C86.672 94.688 78.992 90.512 73.04 85.856C72.704 85.616 72.536 85.688 72.536 86.072V97.52C72.536 98.624 72.128 99.56 71.312 100.328C70.544 101.096 69.632 101.48 68.576 101.48C67.52 101.48 66.584 101.096 65.768 100.328C65 99.56 64.616 98.624 64.616 97.52V86.072C64.616 85.976 64.544 85.904 64.4 85.856C64.304 85.808 64.208 85.808 64.112 85.856C57.968 90.56 50.312 94.736 41.144 98.384ZM52.088 70.16C51.032 70.16 50.12 69.8 49.352 69.08C48.632 68.312 48.272 67.376 48.272 66.272V60.368C48.272 59.936 48.056 59.72 47.624 59.72H39.632C38.72 59.72 37.928 59.408 37.256 58.784C36.632 58.16 36.32 57.392 36.32 56.48C36.32 55.568 36.632 54.8 37.256 54.176C37.928 53.552 38.72 53.24 39.632 53.24H47.624C48.056 53.24 48.272 53.024 48.272 52.592V45.896C48.272 45.512 48.056 45.32 47.624 45.32H40.64C39.728 45.32 38.96 45.008 38.336 44.384C37.76 43.76 37.472 42.992 37.472 42.08C37.472 41.168 37.76 40.4 38.336 39.776C38.96 39.152 39.728 38.84 40.64 38.84H63.536C64.448 38.84 65.216 39.152 65.84 39.776C66.464 40.4 66.776 41.168 66.776 42.08C66.776 42.992 66.464 43.76 65.84 44.384C65.216 45.008 64.448 45.32 63.536 45.32H56.624C56.192 45.32 55.976 45.512 55.976 45.896V52.592C55.976 53.024 56.192 53.24 56.624 53.24H64.112C65.024 53.24 65.768 53.552 66.344 54.176C66.968 54.8 67.28 55.568 67.28 56.48C67.28 57.392 66.968 58.16 66.344 58.784C65.768 59.408 65.024 59.72 64.112 59.72H56.624C56.192 59.72 55.976 59.936 55.976 60.368V66.272C55.976 67.376 55.592 68.312 54.824 69.08C54.104 69.8 53.192 70.16 52.088 70.16ZM85.064 70.16C83.96 70.16 83.024 69.8 82.256 69.08C81.536 68.312 81.176 67.376 81.176 66.272V60.368C81.176 59.936 80.96 59.72 80.528 59.72H73.04C72.128 59.72 71.36 59.408 70.736 58.784C70.16 58.16 69.872 57.392 69.872 56.48C69.872 55.568 70.16 54.8 70.736 54.176C71.36 53.552 72.128 53.24 73.04 53.24H80.528C80.96 53.24 81.176 53.024 81.176 52.592V45.896C81.176 45.512 80.96 45.32 80.528 45.32H73.616C72.704 45.32 71.936 45.008 71.312 44.384C70.688 43.76 70.376 42.992 70.376 42.08C70.376 41.168 70.688 40.4 71.312 39.776C71.936 39.152 72.704 38.84 73.616 38.84H96.512C97.424 38.84 98.168 39.152 98.744 39.776C99.368 40.4 99.68 41.168 99.68 42.08C99.68 42.992 99.368 43.76 98.744 44.384C98.168 45.008 97.424 45.32 96.512 45.32H89.528C89.096 45.32 88.88 45.512 88.88 45.896V52.592C88.88 53.024 89.096 53.24 89.528 53.24H97.52C98.432 53.24 99.2 53.552 99.824 54.176C100.496 54.8 100.832 55.568 100.832 56.48C100.832 57.392 100.496 58.16 99.824 58.784C99.2 59.408 98.432 59.72 97.52 59.72H89.528C89.096 59.72 88.88 59.936 88.88 60.368V66.272C88.88 67.376 88.496 68.312 87.728 69.08C87.008 69.8 86.12 70.16 85.064 70.16Z" fill="white"/>
<path fill-rule="evenodd" clip-rule="evenodd" d="M69.5307 8.9636C68.5506 8.55762 67.4494 8.55763 66.4693 8.9636L27.3374 25.1726C26.3573 25.5785 25.5786 26.3572 25.1726 27.3373L8.96362 66.4693C8.55764 67.4494 8.55764 68.5506 8.96362 69.5307L25.1726 108.663C25.5786 109.643 26.3573 110.421 27.3374 110.827L66.4693 127.036C67.4494 127.442 68.5506 127.442 69.5307 127.036L100.41 114.246C102.451 113.4 104.791 114.369 105.637 116.41C106.482 118.451 105.513 120.791 103.472 121.637L72.5922 134.427C69.6519 135.645 66.3481 135.645 63.4078 134.427L24.2759 118.218C21.3356 117.001 18.9995 114.664 17.7815 111.724L1.57258 72.5922C0.354656 69.6518 0.354655 66.3481 1.57258 63.4078L17.7815 24.2759C18.9995 21.3355 21.3356 18.9995 24.2759 17.7815L63.4078 1.57256C66.3481 0.354636 69.6519 0.354638 72.5922 1.57256L103.472 14.3633C105.513 15.2087 106.482 17.5486 105.637 19.5896C104.791 21.6306 102.451 22.5998 100.41 21.7544L69.5307 8.9636ZM116.41 30.3633C118.451 29.5179 120.791 30.4871 121.637 32.5281L134.427 63.4078C135.645 66.3481 135.645 69.6519 134.427 72.5922L121.637 103.472C120.791 105.513 118.451 106.482 116.41 105.637C114.369 104.791 113.4 102.451 114.246 100.41L127.036 69.5307C127.442 68.5506 127.442 67.4494 127.036 66.4693L114.246 35.5896C113.4 33.5486 114.369 31.2087 116.41 30.3633Z" fill="white"/>
<path d="M171.275 98.48C168.971 98.48 166.923 98.192 165.131 97.616C163.339 97.04 161.659 96.064 160.091 94.688C159.227 93.92 158.795 93.072 158.795 92.144C158.795 91.408 159.067 90.768 159.611 90.224C160.155 89.648 160.811 89.36 161.579 89.36C162.187 89.36 162.731 89.552 163.211 89.936C164.491 90.992 165.739 91.76 166.955 92.24C168.171 92.72 169.611 92.96 171.275 92.96C173.067 92.96 174.603 92.56 175.883 91.76C177.195 90.96 177.851 89.968 177.851 88.784C177.851 87.344 177.211 86.224 175.931 85.424C174.651 84.592 172.619 83.968 169.835 83.552C162.827 82.528 159.323 79.264 159.323 73.76C159.323 71.744 159.851 70 160.907 68.528C161.963 67.024 163.403 65.888 165.227 65.12C167.051 64.32 169.083 63.92 171.323 63.92C173.339 63.92 175.227 64.224 176.987 64.832C178.779 65.44 180.267 66.24 181.451 67.232C182.379 67.968 182.843 68.816 182.843 69.776C182.843 70.512 182.571 71.168 182.027 71.744C181.483 72.288 180.843 72.56 180.107 72.56C179.627 72.56 179.195 72.416 178.811 72.128C177.979 71.456 176.811 70.848 175.307 70.304C173.835 69.728 172.507 69.44 171.323 69.44C169.307 69.44 167.739 69.824 166.619 70.592C165.531 71.328 164.987 72.304 164.987 73.52C164.987 74.896 165.547 75.936 166.667 76.64C167.819 77.344 169.611 77.92 172.043 78.368C174.795 78.848 176.987 79.472 178.619 80.24C180.283 80.976 181.531 82 182.363 83.312C183.195 84.592 183.611 86.304 183.611 88.448C183.611 90.464 183.035 92.24 181.883 93.776C180.763 95.28 179.259 96.448 177.371 97.28C175.483 98.08 173.451 98.48 171.275 98.48Z" fill="white"/>
<path d="M202.124 71.84C205.292 71.84 207.484 72.816 208.7 74.768C209.916 76.688 210.524 79.36 210.524 82.784V95.072C210.524 95.904 210.252 96.608 209.708 97.184C209.164 97.728 208.476 98 207.644 98C206.812 98 206.124 97.728 205.58 97.184C205.036 96.608 204.764 95.904 204.764 95.072V82.784C204.764 81.024 204.412 79.648 203.708 78.656C203.036 77.632 201.836 77.12 200.108 77.12C198.316 77.12 196.908 77.664 195.884 78.752C194.892 79.808 194.396 81.152 194.396 82.784V95.072C194.396 95.904 194.124 96.608 193.58 97.184C193.036 97.728 192.348 98 191.516 98C190.684 98 189.996 97.728 189.452 97.184C188.908 96.608 188.636 95.904 188.636 95.072V65.408C188.636 64.576 188.908 63.888 189.452 63.344C189.996 62.768 190.684 62.48 191.516 62.48C192.348 62.48 193.036 62.768 193.58 63.344C194.124 63.888 194.396 64.576 194.396 65.408V76.016C195.26 74.864 196.348 73.888 197.66 73.088C199.004 72.256 200.492 71.84 202.124 71.84Z" fill="white"/>
<path d="M222.185 95.072C222.185 95.904 221.913 96.608 221.369 97.184C220.825 97.728 220.137 98 219.305 98C218.473 98 217.785 97.728 217.241 97.184C216.697 96.608 216.425 95.904 216.425 95.072V75.248C216.425 74.416 216.697 73.728 217.241 73.184C217.785 72.608 218.473 72.32 219.305 72.32C220.137 72.32 220.825 72.608 221.369 73.184C221.913 73.728 222.185 74.416 222.185 75.248V95.072ZM219.257 69.2C218.169 69.2 217.401 69.024 216.953 68.672C216.505 68.32 216.281 67.696 216.281 66.8V65.888C216.281 64.992 216.521 64.368 217.001 64.016C217.481 63.664 218.249 63.488 219.305 63.488C220.425 63.488 221.209 63.664 221.657 64.016C222.105 64.368 222.329 64.992 222.329 65.888V66.8C222.329 67.728 222.089 68.368 221.609 68.72C221.161 69.04 220.377 69.2 219.257 69.2Z" fill="white"/>
<path d="M252.776 85.184C252.776 87.744 252.2 90.048 251.048 92.096C249.896 94.112 248.312 95.68 246.296 96.8C244.312 97.92 242.12 98.48 239.72 98.48C237.288 98.48 235.08 97.92 233.096 96.8C231.112 95.68 229.544 94.112 228.392 92.096C227.24 90.048 226.664 87.744 226.664 85.184C226.664 82.624 227.24 80.336 228.392 78.32C229.544 76.272 231.112 74.688 233.096 73.568C235.08 72.416 237.288 71.84 239.72 71.84C242.12 71.84 244.312 72.416 246.296 73.568C248.312 74.688 249.896 76.272 251.048 78.32C252.2 80.336 252.776 82.624 252.776 85.184ZM247.016 85.184C247.016 83.616 246.68 82.224 246.008 81.008C245.368 79.76 244.488 78.8 243.368 78.128C242.28 77.456 241.064 77.12 239.72 77.12C238.376 77.12 237.144 77.456 236.024 78.128C234.936 78.8 234.056 79.76 233.384 81.008C232.744 82.224 232.424 83.616 232.424 85.184C232.424 86.752 232.744 88.144 233.384 89.36C234.056 90.576 234.936 91.52 236.024 92.192C237.144 92.864 238.376 93.2 239.72 93.2C241.064 93.2 242.28 92.864 243.368 92.192C244.488 91.52 245.368 90.576 246.008 89.36C246.68 88.144 247.016 86.752 247.016 85.184Z" fill="white"/>
<path d="M270.933 71.84C271.893 71.84 272.693 72.112 273.333 72.656C274.005 73.2 274.341 73.84 274.341 74.576C274.341 75.568 274.085 76.32 273.573 76.832C273.061 77.312 272.453 77.552 271.749 77.552C271.269 77.552 270.725 77.44 270.117 77.216C270.021 77.184 269.797 77.12 269.445 77.024C269.125 76.928 268.773 76.88 268.389 76.88C267.557 76.88 266.757 77.136 265.989 77.648C265.221 78.16 264.581 78.944 264.069 80C263.589 81.024 263.349 82.256 263.349 83.696V95.072C263.349 95.904 263.077 96.608 262.533 97.184C261.989 97.728 261.301 98 260.469 98C259.637 98 258.949 97.728 258.405 97.184C257.861 96.608 257.589 95.904 257.589 95.072V75.248C257.589 74.416 257.861 73.728 258.405 73.184C258.949 72.608 259.637 72.32 260.469 72.32C261.301 72.32 261.989 72.608 262.533 73.184C263.077 73.728 263.349 74.416 263.349 75.248V75.872C264.085 74.56 265.141 73.568 266.517 72.896C267.893 72.192 269.365 71.84 270.933 71.84Z" fill="white"/>
<path d="M283.825 95.072C283.825 95.904 283.553 96.608 283.009 97.184C282.465 97.728 281.777 98 280.945 98C280.113 98 279.425 97.728 278.881 97.184C278.337 96.608 278.065 95.904 278.065 95.072V75.248C278.065 74.416 278.337 73.728 278.881 73.184C279.425 72.608 280.113 72.32 280.945 72.32C281.777 72.32 282.465 72.608 283.009 73.184C283.553 73.728 283.825 74.416 283.825 75.248V95.072ZM280.897 69.2C279.809 69.2 279.041 69.024 278.593 68.672C278.145 68.32 277.921 67.696 277.921 66.8V65.888C277.921 64.992 278.161 64.368 278.641 64.016C279.121 63.664 279.889 63.488 280.945 63.488C282.065 63.488 282.849 63.664 283.297 64.016C283.745 64.368 283.969 64.992 283.969 65.888V66.8C283.969 67.728 283.729 68.368 283.249 68.72C282.801 69.04 282.017 69.2 280.897 69.2Z" fill="white"/>
<path d="M322.206 92.384C323.038 92.384 323.726 92.656 324.27 93.2C324.846 93.712 325.134 94.384 325.134 95.216C325.134 96.016 324.846 96.688 324.27 97.232C323.726 97.744 323.038 98 322.206 98H306.606C305.774 98 305.07 97.728 304.494 97.184C303.95 96.608 303.678 95.904 303.678 95.072V67.328C303.678 66.496 303.966 65.808 304.542 65.264C305.118 64.688 305.854 64.4 306.75 64.4C307.55 64.4 308.238 64.688 308.814 65.264C309.39 65.808 309.678 66.496 309.678 67.328V92.384H322.206Z" fill="white"/>
<path d="M350.935 71.84C351.767 71.84 352.455 72.112 352.999 72.656C353.543 73.2 353.815 73.904 353.815 74.768V95.072C353.815 95.904 353.543 96.608 352.999 97.184C352.455 97.728 351.767 98 350.935 98C350.103 98 349.415 97.728 348.871 97.184C348.359 96.64 348.087 95.952 348.055 95.12C347.255 96.048 346.167 96.848 344.791 97.52C343.447 98.16 342.023 98.48 340.519 98.48C338.311 98.48 336.311 97.92 334.519 96.8C332.727 95.648 331.303 94.064 330.247 92.048C329.223 90.032 328.711 87.744 328.711 85.184C328.711 82.624 329.223 80.336 330.247 78.32C331.271 76.272 332.663 74.688 334.423 73.568C336.215 72.416 338.183 71.84 340.327 71.84C341.863 71.84 343.303 72.128 344.647 72.704C345.991 73.248 347.127 73.952 348.055 74.816V74.768C348.055 73.936 348.327 73.248 348.871 72.704C349.415 72.128 350.103 71.84 350.935 71.84ZM341.239 93.2C343.319 93.2 345.015 92.448 346.327 90.944C347.639 89.408 348.295 87.488 348.295 85.184C348.295 82.88 347.639 80.96 346.327 79.424C345.015 77.888 343.319 77.12 341.239 77.12C339.191 77.12 337.511 77.888 336.199 79.424C334.887 80.96 334.231 82.88 334.231 85.184C334.231 87.488 334.871 89.408 336.151 90.944C337.463 92.448 339.159 93.2 341.239 93.2Z" fill="white"/>
<path d="M373.354 71.84C375.562 71.84 377.562 72.416 379.354 73.568C381.146 74.688 382.553 76.256 383.577 78.272C384.633 80.288 385.161 82.576 385.161 85.136C385.161 87.696 384.65 90 383.626 92.048C382.602 94.064 381.194 95.648 379.402 96.8C377.642 97.92 375.69 98.48 373.546 98.48C372.01 98.48 370.554 98.176 369.178 97.568C367.834 96.928 366.714 96.16 365.818 95.264V95.552C365.818 96.384 365.545 97.088 365.001 97.664C364.457 98.208 363.77 98.48 362.938 98.48C362.106 98.48 361.418 98.208 360.874 97.664C360.33 97.12 360.057 96.416 360.057 95.552V65.408C360.057 64.576 360.33 63.888 360.874 63.344C361.418 62.768 362.106 62.48 362.938 62.48C363.77 62.48 364.457 62.768 365.001 63.344C365.545 63.888 365.818 64.576 365.818 65.408V75.44C366.586 74.48 367.657 73.648 369.033 72.944C370.409 72.208 371.85 71.84 373.354 71.84ZM372.633 93.2C374.681 93.2 376.361 92.432 377.673 90.896C378.985 89.36 379.641 87.44 379.641 85.136C379.641 82.832 378.985 80.928 377.673 79.424C376.393 77.888 374.713 77.12 372.633 77.12C370.553 77.12 368.858 77.888 367.546 79.424C366.234 80.928 365.577 82.832 365.577 85.136C365.577 87.44 366.234 89.36 367.546 90.896C368.858 92.432 370.553 93.2 372.633 93.2Z" fill="white"/>
<path d="M388.476 94.016C388.188 93.632 388.044 93.152 388.044 92.576C388.044 91.744 388.46 91.04 389.292 90.464C389.74 90.176 390.204 90.032 390.684 90.032C391.356 90.032 391.996 90.336 392.604 90.944C393.564 91.936 394.556 92.672 395.58 93.152C396.636 93.632 397.9 93.872 399.372 93.872C401.868 93.776 403.116 92.832 403.116 91.04C403.116 90.112 402.684 89.408 401.82 88.928C400.988 88.448 399.676 87.968 397.884 87.488C396.028 86.976 394.508 86.464 393.324 85.952C392.172 85.44 391.164 84.672 390.3 83.648C389.468 82.592 389.052 81.184 389.052 79.424C389.052 77.888 389.484 76.56 390.348 75.44C391.244 74.288 392.396 73.408 393.804 72.8C395.244 72.16 396.764 71.84 398.364 71.84C399.996 71.84 401.628 72.144 403.26 72.752C404.892 73.36 406.172 74.256 407.1 75.44C407.516 75.952 407.724 76.528 407.724 77.168C407.724 77.904 407.42 78.512 406.812 78.992C406.364 79.344 405.852 79.52 405.276 79.52C404.572 79.52 403.996 79.296 403.548 78.848C402.972 78.144 402.22 77.584 401.292 77.168C400.396 76.752 399.372 76.544 398.22 76.544C395.788 76.544 394.572 77.424 394.572 79.184C394.572 79.888 394.796 80.464 395.244 80.912C395.692 81.328 396.252 81.664 396.924 81.92C397.628 82.144 398.604 82.432 399.852 82.784C401.58 83.264 403.02 83.76 404.172 84.272C405.324 84.784 406.3 85.568 407.1 86.624C407.9 87.68 408.3 89.072 408.3 90.8C408.3 92.368 407.836 93.744 406.908 94.928C405.98 96.08 404.78 96.96 403.308 97.568C401.868 98.176 400.38 98.48 398.844 98.48C396.732 98.48 394.764 98.128 392.94 97.424C391.116 96.72 389.628 95.584 388.476 94.016Z" fill="white"/>
</svg>
